FILE "King of Fighters '99, The (1999)(SNK)(M4)[h][aka King of Fighters '99, The - Millennium Battle].img" BINARY
  TRACK 01 MODE1/2352
    INDEX 01 00:00:00
  TRACK 02 AUDIO
    PREGAP 00:02:00
    INDEX 01 08:49:42
  TRACK 03 AUDIO
    INDEX 00 10:03:46
    INDEX 01 10:05:46
  TRACK 04 AUDIO
    INDEX 00 10:26:49
    INDEX 01 10:28:49
  TRACK 05 AUDIO
    INDEX 00 11:24:53
    INDEX 01 11:26:53
  TRACK 06 AUDIO
    INDEX 00 12:15:55
    INDEX 01 12:17:55
  TRACK 07 AUDIO
    INDEX 00 13:59:12
    INDEX 01 14:01:12
  TRACK 08 AUDIO
    INDEX 00 15:22:66
    INDEX 01 15:24:66
  TRACK 09 AUDIO
    INDEX 00 16:26:70
    INDEX 01 16:28:70
  TRACK 10 AUDIO
    INDEX 00 17:07:39
    INDEX 01 17:09:39
  TRACK 11 AUDIO
    INDEX 00 17:44:04
    INDEX 01 17:46:04
  TRACK 12 AUDIO
    INDEX 00 18:16:64
    INDEX 01 18:18:64
  TRACK 13 AUDIO
    INDEX 00 18:51:55
    INDEX 01 18:53:55
  TRACK 14 AUDIO
    INDEX 00 20:53:74
    INDEX 01 20:55:74
  TRACK 15 AUDIO
    INDEX 00 21:38:06
    INDEX 01 21:40:06
  TRACK 16 AUDIO
    INDEX 00 22:39:45
    INDEX 01 22:41:45
  TRACK 17 AUDIO
    INDEX 00 23:14:33
    INDEX 01 23:16:33
  TRACK 18 AUDIO
    INDEX 00 25:24:36
    INDEX 01 25:26:36
  TRACK 19 AUDIO
    INDEX 00 27:04:06
    INDEX 01 27:06:06
  TRACK 20 AUDIO
    INDEX 00 29:14:09
    INDEX 01 29:16:09
  TRACK 21 AUDIO
    INDEX 00 30:54:12
    INDEX 01 30:56:12
  TRACK 22 AUDIO
    INDEX 00 33:04:15
    INDEX 01 33:06:15
  TRACK 23 AUDIO
    INDEX 00 34:44:18
    INDEX 01 34:46:18
  TRACK 24 AUDIO
    INDEX 00 36:54:21
    INDEX 01 36:56:21
  TRACK 25 AUDIO
    INDEX 00 38:34:35
    INDEX 01 38:36:35
  TRACK 26 AUDIO
    INDEX 00 40:44:71
    INDEX 01 40:46:71
  TRACK 27 AUDIO
    INDEX 00 42:25:01
    INDEX 01 42:27:01
  TRACK 28 AUDIO
    INDEX 00 44:35:06
    INDEX 01 44:37:06
  TRACK 29 AUDIO
    INDEX 00 46:15:11
    INDEX 01 46:17:11
  TRACK 30 AUDIO
    INDEX 00 48:25:14
    INDEX 01 48:27:14
  TRACK 31 AUDIO
    INDEX 00 50:05:19
    INDEX 01 50:07:19
  TRACK 32 AUDIO
    INDEX 00 52:16:25
    INDEX 01 52:18:25
  TRACK 33 AUDIO
    INDEX 00 53:56:08
    INDEX 01 53:58:08
  TRACK 34 AUDIO
    INDEX 00 56:06:13
    INDEX 01 56:08:13
  TRACK 35 AUDIO
    INDEX 00 57:47:06
    INDEX 01 57:49:06
  TRACK 36 AUDIO
    INDEX 00 59:57:48
    INDEX 01 59:59:48
  TRACK 37 AUDIO
    INDEX 00 61:37:72
    INDEX 01 61:39:72
  TRACK 38 AUDIO
    INDEX 00 63:48:64
    INDEX 01 63:50:64
  TRACK 39 AUDIO
    INDEX 00 65:28:73
    INDEX 01 65:30:73
  TRACK 40 AUDIO
    INDEX 00 67:39:71
    INDEX 01 67:41:71
  TRACK 41 AUDIO
    INDEX 00 69:20:47
    INDEX 01 69:22:47
  TRACK 42 AUDIO
    INDEX 00 69:52:04
    INDEX 01 69:54:04
  TRACK 43 AUDIO
    INDEX 00 71:08:08
    INDEX 01 71:10:08
